<svg width="512" height="512" viewBox="0 0 512 512" fill="none" xmlns="http://www.w3.org/2000/svg">
<rect width="512" height="512" fill="#191C26"/>
<path d="M75.4 269C75.4 251.8 78.6 236.7 85 223.7C91.6 210.7 100.5 200.7 111.7 193.7C122.9 186.7 135.4 183.2 149.2 183.2C160.2 183.2 170.2 185.5 179.2 190.1C188.4 194.7 195.6 200.9 200.8 208.7V131H252.1V353H200.8V329C196 337 189.1 343.4 180.1 348.2C171.3 353 161 355.4 149.2 355.4C135.4 355.4 122.9 351.9 111.7 344.9C100.5 337.7 91.6 327.6 85 314.6C78.6 301.4 75.4 286.2 75.4 269ZM200.8 269.3C200.8 256.5 197.2 246.4 190 239C183 231.6 174.4 227.9 164.2 227.9C154 227.9 145.3 231.6 138.1 239C131.1 246.2 127.6 256.2 127.6 269C127.6 281.8 131.1 292 138.1 299.6C145.3 307 154 310.7 164.2 310.7C174.4 310.7 183 307 190 299.6C197.2 292.2 200.8 282.1 200.8 269.3Z" fill="#FFFBEB"/>
<path d="M334.7 355.4C320.1 355.4 307.1 352.9 295.7 347.9C284.3 342.9 275.3 336.1 268.7 327.5C262.1 318.7 258.4 308.9 257.6 298.1H308.3C308.9 303.9 311.6 308.6 316.4 312.2C321.2 315.8 327.1 317.6 334.1 317.6C340.5 317.6 345.4 316.4 348.8 314C352.4 311.4 354.2 308.1 354.2 304.1C354.2 299.3 351.7 295.8 346.7 293.6C341.7 291.2 333.6 288.6 322.4 285.8C310.4 283 300.4 280.1 292.4 277.1C284.4 273.9 277.5 269 271.7 262.4C265.9 255.6 263 246.5 263 235.1C263 225.5 265.6 216.8 270.8 209C276.2 201 284 194.7 294.2 190.1C304.6 185.5 316.9 183.2 331.1 183.2C352.1 183.2 368.6 188.4 380.6 198.8C392.8 209.2 399.8 223 401.6 240.2H354.2C353.4 234.4 350.8 229.8 346.4 226.4C342.2 223 336.6 221.3 329.6 221.3C323.6 221.3 319 222.5 315.8 224.9C312.6 227.1 311 230.2 311 234.2C311 239 313.5 242.6 318.5 245C323.7 247.4 331.7 249.8 342.5 252.2C354.9 255.4 365 258.6 372.8 261.8C380.6 264.8 387.4 269.8 393.2 276.8C399.2 283.6 402.3 292.8 402.5 304.4C402.5 314.2 399.7 323 394.1 330.8C388.7 338.4 380.8 344.4 370.4 348.8C360.2 353.2 348.3 355.4 334.7 355.4Z" fill="#FFFBEB"/>
<path d="M434.6 355.4C425.6 355.4 418.2 352.8 412.4 347.6C406.8 342.2 404 335.6 404 327.8C404 319.8 406.8 313.1 412.4 307.7C418.2 302.3 425.6 299.6 434.6 299.6C443.4 299.6 450.6 302.3 456.2 307.7C462 313.1 464.9 319.8 464.9 327.8C464.9 335.6 462 342.2 456.2 347.6C450.6 352.8 443.4 355.4 434.6 355.4Z" fill="#EA7B15"/>
</svg>
